<svg width="20.000000" height="20.000000" viewBox="0 0 20 20" fill="none" xmlns="http://www.w3.org/2000/svg" xmlns:xlink="http://www.w3.org/1999/xlink">
	<desc>
			Created with Pixso.
	</desc>
	<defs>
		<clipPath id="clip1_33">
			<rect id="noun-magic-2704149 1" width="20.000000" height="20.000000" fill="white" fill-opacity="0"/>
		</clipPath>
	</defs>
	<rect id="noun-magic-2704149 1" width="20.000000" height="20.000000" fill="#FFFFFF" fill-opacity="0"/>
	<g clip-path="url(#clip1_33)">
		<path id="Vector" d="M12.24 7.57L13.06 6.75L13.88 7.57L13.06 8.38L12.24 7.57Z" fill="#000000" fill-opacity="1.000000" fill-rule="evenodd"/>
		<path id="Vector" d="M3.01 16.75L11.9 7.9L12.73 8.71L3.83 17.57L3.01 16.75Z" fill="#000000" fill-opacity="1.000000" fill-rule="evenodd"/>
		<path id="Vector" d="M16.57 11.49C16.21 11.4 15.9 11.19 15.68 10.89C15.46 10.6 15.35 10.24 15.37 9.88C15.37 9.82 15.35 9.76 15.31 9.72C15.28 9.67 15.23 9.64 15.17 9.64C15.11 9.63 15.05 9.64 15.01 9.67C14.96 9.7 14.92 9.75 14.91 9.81C14.82 10.16 14.61 10.47 14.31 10.69C14.02 10.91 13.66 11.02 13.29 11C13.23 11 13.18 11.02 13.13 11.06C13.09 11.09 13.06 11.15 13.05 11.2C13.04 11.26 13.06 11.32 13.09 11.37C13.12 11.41 13.17 11.45 13.22 11.46C13.58 11.55 13.89 11.76 14.11 12.06C14.33 12.35 14.44 12.71 14.42 13.07C14.42 13.13 14.44 13.19 14.48 13.23C14.51 13.27 14.57 13.3 14.62 13.31C14.68 13.32 14.74 13.31 14.79 13.28C14.83 13.24 14.87 13.2 14.88 13.14C14.98 12.79 15.19 12.48 15.48 12.26C15.77 12.04 16.13 11.93 16.5 11.95C16.56 11.95 16.61 11.93 16.66 11.89C16.7 11.86 16.73 11.8 16.74 11.75C16.75 11.69 16.74 11.63 16.7 11.58C16.67 11.54 16.62 11.5 16.57 11.49Z" fill="#000000" fill-opacity="1.000000" fill-rule="nonzero"/>
		<path id="Vector" d="M16.61 3.02C16.4 3.17 16.14 3.24 15.88 3.22C15.62 3.2 15.37 3.1 15.18 2.92C15.14 2.88 15.08 2.86 15.02 2.86C14.97 2.86 14.91 2.88 14.87 2.91C14.82 2.95 14.79 3 14.79 3.06C14.78 3.12 14.79 3.17 14.83 3.22C14.98 3.44 15.05 3.69 15.03 3.95C15.01 4.21 14.9 4.46 14.72 4.65C14.68 4.69 14.66 4.75 14.66 4.8C14.66 4.86 14.68 4.92 14.72 4.96C14.76 5 14.81 5.03 14.87 5.04C14.92 5.05 14.98 5.03 15.03 5C15.24 4.85 15.5 4.78 15.76 4.8C16.02 4.82 16.27 4.92 16.46 5.1C16.5 5.14 16.56 5.16 16.62 5.16C16.67 5.16 16.73 5.14 16.77 5.11C16.82 5.07 16.84 5.02 16.85 4.96C16.86 4.9 16.85 4.85 16.81 4.8C16.66 4.58 16.59 4.33 16.61 4.07C16.63 3.81 16.74 3.56 16.92 3.37C16.95 3.33 16.98 3.27 16.98 3.22C16.98 3.16 16.96 3.1 16.92 3.06C16.88 3.02 16.83 2.99 16.77 2.98C16.72 2.97 16.66 2.99 16.61 3.02Z" fill="#000000" fill-opacity="1.000000" fill-rule="nonzero"/>
		<path id="Vector" d="M7.14 3.91C7.58 4.15 7.92 4.54 8.1 5C8.29 5.46 8.31 5.98 8.16 6.46C8.15 6.51 8.15 6.57 8.17 6.62C8.2 6.67 8.24 6.72 8.29 6.74C8.35 6.76 8.41 6.76 8.46 6.74C8.52 6.73 8.56 6.69 8.59 6.64C8.84 6.2 9.22 5.86 9.69 5.68C10.16 5.49 10.67 5.47 11.15 5.62C11.21 5.64 11.27 5.63 11.32 5.61C11.37 5.58 11.41 5.54 11.43 5.49C11.46 5.43 11.46 5.38 11.44 5.32C11.42 5.27 11.38 5.22 11.33 5.19C10.9 4.95 10.56 4.56 10.37 4.1C10.18 3.63 10.16 3.12 10.31 2.64C10.33 2.59 10.32 2.53 10.3 2.48C10.27 2.42 10.23 2.38 10.18 2.36C10.13 2.34 10.07 2.33 10.01 2.35C9.96 2.37 9.91 2.41 9.88 2.46C9.64 2.89 9.25 3.23 8.78 3.42C8.32 3.61 7.8 3.63 7.32 3.48C7.27 3.46 7.21 3.47 7.15 3.49C7.1 3.51 7.06 3.56 7.04 3.61C7.02 3.66 7.01 3.72 7.03 3.78C7.05 3.83 7.09 3.88 7.14 3.91Z" fill="#000000" fill-opacity="1.000000" fill-rule="nonzero"/>
	</g>
</svg>
